<svg xmlns="http://www.w3.org/2000/svg" xmlns:xlink="http://www.w3.org/1999/xlink" width="800" zoomAndPan="magnify" viewBox="0 0 600 149.999998" height="200" preserveAspectRatio="xMidYMid meet" version="1.0"><defs><clipPath id="c5a692afc1"><path d="M 470 19 L 573.851562 19 L 573.851562 127.808594 L 470 127.808594 Z M 470 19 " clip-rule="nonzero"/></clipPath><clipPath id="fc954a27bc"><path d="M 292.5625 19 L 393.417969 19 L 393.417969 127.808594 L 292.5625 127.808594 Z M 292.5625 19 " clip-rule="nonzero"/></clipPath><clipPath id="ba6f5a4fe1"><path d="M 26.613281 19.347656 L 101.484375 19.347656 L 101.484375 128.3125 L 26.613281 128.3125 Z M 26.613281 19.347656 " clip-rule="nonzero"/></clipPath><clipPath id="a1be09c2d1"><path d="M 573.34375 20.152344 L 595.339844 20.152344 L 595.339844 43 L 573.34375 43 Z M 573.34375 20.152344 " clip-rule="nonzero"/></clipPath></defs><g clip-path="url(#c5a692afc1)"><path fill="#ffffff" d="M 569.511719 50.089844 C 568.285156 46.894531 566.734375 43.867188 564.871094 40.992188 C 562.996094 38.121094 560.84375 35.488281 558.417969 33.070312 C 556.074219 30.777344 553.515625 28.746094 550.726562 27.003906 C 547.9375 25.257812 545.003906 23.828125 541.914062 22.722656 C 535.414062 20.390625 528.707031 19.238281 521.796875 19.273438 C 515.003906 19.25 508.417969 20.390625 502.035156 22.722656 C 497.214844 24.492188 492.804688 26.976562 488.8125 30.199219 L 470.316406 80.390625 C 470.75 86.101562 471.988281 91.628906 474.054688 96.976562 C 475.292969 100.164062 476.84375 103.191406 478.71875 106.054688 C 480.59375 108.902344 482.746094 111.535156 485.183594 113.9375 C 487.539062 116.210938 490.101562 118.214844 492.890625 119.945312 C 495.664062 121.679688 498.597656 123.097656 501.6875 124.214844 C 508.1875 126.546875 514.894531 127.6875 521.796875 127.652344 C 528.828125 127.699219 535.652344 126.558594 542.289062 124.214844 C 545.363281 123.121094 548.296875 121.703125 551.0625 119.972656 C 553.839844 118.242188 556.386719 116.222656 558.71875 113.9375 C 561.109375 111.523438 563.226562 108.878906 565.050781 106.027344 C 566.890625 103.167969 568.40625 100.152344 569.609375 96.976562 C 571.015625 93.242188 572.058594 89.394531 572.746094 85.464844 C 573.441406 81.523438 573.753906 77.554688 573.707031 73.554688 C 573.765625 69.550781 573.441406 65.570312 572.734375 61.617188 C 572.035156 57.675781 570.953125 53.828125 569.511719 50.089844 Z M 547.527344 87.351562 C 546.410156 91.210938 544.609375 94.742188 542.144531 97.929688 C 540.988281 99.40625 539.667969 100.742188 538.203125 101.90625 C 536.722656 103.085938 535.136719 104.058594 533.429688 104.851562 C 531.589844 105.644531 529.679688 106.246094 527.707031 106.652344 C 525.75 107.050781 523.765625 107.253906 521.757812 107.253906 C 519.75 107.253906 517.757812 107.050781 515.796875 106.652344 C 513.828125 106.246094 511.925781 105.644531 510.078125 104.851562 C 508.394531 104.058594 506.820312 103.070312 505.351562 101.894531 C 503.898438 100.726562 502.601562 99.40625 501.457031 97.929688 C 498.96875 94.742188 497.167969 91.222656 496.050781 87.351562 C 494.726562 82.820312 494.101562 78.203125 494.175781 73.480469 C 494.125 68.816406 494.75 64.25 496.050781 59.765625 C 497.15625 55.871094 498.957031 52.316406 501.457031 49.117188 C 502.613281 47.652344 503.921875 46.339844 505.375 45.175781 C 506.832031 43.996094 508.394531 43.011719 510.078125 42.195312 C 511.914062 41.339844 513.8125 40.703125 515.796875 40.285156 C 517.78125 39.875 519.777344 39.683594 521.796875 39.71875 C 523.789062 39.683594 525.761719 39.851562 527.707031 40.246094 C 529.65625 40.632812 531.542969 41.234375 533.359375 42.027344 C 535.0625 42.820312 536.652344 43.804688 538.128906 44.984375 C 539.609375 46.148438 540.917969 47.472656 542.070312 48.960938 C 544.558594 52.160156 546.351562 55.691406 547.457031 59.585938 C 548.765625 64.105469 549.390625 68.734375 549.332031 73.445312 C 549.425781 78.167969 548.828125 82.796875 547.527344 87.351562 Z M 547.527344 87.351562 " fill-opacity="1" fill-rule="nonzero"/></g><path fill="#ffffff" d="M 484.488281 21.679688 L 459.558594 21.679688 C 457.625 27.734375 455.460938 34.226562 453.070312 41.148438 C 450.761719 48.085938 448.261719 55.007812 445.785156 61.941406 C 443.308594 68.867188 440.90625 75.429688 438.597656 81.738281 C 436.277344 88.035156 434.140625 93.492188 432.191406 98.035156 C 430.113281 93.421875 427.9375 87.964844 425.675781 81.691406 L 418.574219 61.894531 C 416.109375 55.007812 413.683594 48.085938 411.289062 41.101562 C 408.984375 34.179688 406.664062 27.6875 404.800781 21.679688 L 378.96875 21.679688 C 379.5 23.226562 380.039062 24.851562 380.617188 26.507812 C 381.796875 27.484375 382.925781 28.46875 384.078125 29.539062 C 386.808594 32.253906 389.210938 35.222656 391.3125 38.445312 C 393.417969 41.664062 395.160156 45.066406 396.542969 48.660156 C 398.152344 52.867188 399.34375 57.195312 400.125 61.628906 C 400.894531 66.066406 401.242188 70.535156 401.171875 75.03125 C 401.171875 76.953125 401.171875 78.816406 400.976562 80.644531 C 403.296875 86.535156 405.832031 92.445312 408.40625 98.410156 C 412.421875 107.808594 416.507812 116.859375 420.652344 125.597656 L 442.984375 125.597656 C 447.109375 116.90625 451.171875 107.867188 455.171875 98.457031 C 459.175781 89.046875 462.972656 79.753906 466.566406 70.585938 C 470.171875 61.339844 473.488281 52.542969 476.507812 44.203125 C 479.535156 35.859375 482.191406 28.347656 484.488281 21.679688 Z M 484.488281 21.679688 " fill-opacity="1" fill-rule="nonzero"/><g clip-path="url(#fc954a27bc)"><path fill="#ffffff" d="M 378.140625 33.070312 C 375.796875 30.777344 373.226562 28.746094 370.449219 27.003906 C 367.660156 25.257812 364.726562 23.828125 361.640625 22.722656 C 355.136719 20.378906 348.429688 19.238281 341.519531 19.273438 C 334.714844 19.25 328.105469 20.390625 321.710938 22.722656 C 318.621094 23.851562 315.6875 25.285156 312.914062 27.027344 C 310.125 28.769531 307.550781 30.789062 305.195312 33.070312 C 302.769531 35.488281 300.59375 38.132812 298.707031 41.003906 C 296.820312 43.867188 295.234375 46.894531 293.96875 50.089844 C 293.476562 51.246094 293.058594 52.398438 292.671875 53.648438 L 292.671875 93.625 C 293.046875 94.777344 293.382812 95.933594 293.828125 97.027344 C 295.050781 100.210938 296.601562 103.242188 298.464844 106.089844 C 300.339844 108.949219 302.492188 111.582031 304.921875 113.972656 C 307.277344 116.257812 309.847656 118.253906 312.636719 119.996094 C 315.414062 121.726562 318.34375 123.144531 321.433594 124.261719 C 327.925781 126.59375 334.632812 127.734375 341.542969 127.699219 C 348.574219 127.746094 355.402344 126.605469 362.023438 124.261719 C 365.113281 123.167969 368.03125 121.75 370.808594 120.019531 C 373.585938 118.289062 376.132812 116.269531 378.464844 113.972656 C 380.84375 111.558594 382.960938 108.914062 384.789062 106.054688 C 386.625 103.179688 388.128906 100.164062 389.332031 96.976562 C 390.738281 93.242188 391.769531 89.394531 392.457031 85.453125 C 393.128906 81.523438 393.441406 77.554688 393.371094 73.554688 C 393.453125 69.550781 393.152344 65.570312 392.480469 61.628906 C 391.796875 57.6875 390.75 53.839844 389.332031 50.089844 C 388.082031 46.894531 386.519531 43.851562 384.632812 40.992188 C 382.746094 38.121094 380.582031 35.476562 378.140625 33.070312 Z M 367.277344 87.351562 C 366.144531 91.222656 364.34375 94.742188 361.867188 97.929688 C 360.714844 99.40625 359.390625 100.742188 357.925781 101.90625 C 356.445312 103.085938 354.859375 104.070312 353.152344 104.851562 C 351.300781 105.644531 349.402344 106.246094 347.445312 106.652344 C 345.472656 107.050781 343.488281 107.253906 341.484375 107.253906 C 339.476562 107.253906 337.492188 107.050781 335.53125 106.652344 C 333.5625 106.246094 331.664062 105.644531 329.824219 104.851562 C 328.128906 104.058594 326.554688 103.070312 325.089844 101.894531 C 323.632812 100.726562 322.324219 99.40625 321.171875 97.929688 C 318.707031 94.742188 316.914062 91.210938 315.785156 87.351562 C 314.476562 82.820312 313.851562 78.203125 313.910156 73.480469 C 313.863281 68.816406 314.488281 64.25 315.785156 59.765625 C 316.902344 55.871094 318.695312 52.328125 321.171875 49.117188 C 322.335938 47.652344 323.644531 46.339844 325.113281 45.164062 C 326.566406 43.996094 328.140625 43 329.824219 42.195312 C 331.652344 41.339844 333.550781 40.703125 335.53125 40.285156 C 337.503906 39.875 339.5 39.683594 341.519531 39.71875 C 343.5 39.683594 345.472656 39.851562 347.421875 40.246094 C 349.378906 40.632812 351.253906 41.234375 353.082031 42.027344 C 354.789062 42.820312 356.375 43.804688 357.851562 44.972656 C 359.332031 46.148438 360.640625 47.472656 361.796875 48.960938 C 364.28125 52.160156 366.085938 55.691406 367.203125 59.585938 C 368.5 64.105469 369.125 68.734375 369.078125 73.445312 C 369.175781 78.167969 368.574219 82.796875 367.277344 87.351562 Z M 367.277344 87.351562 " fill-opacity="1" fill-rule="nonzero"/></g><path fill="#ffffff" d="M 261.710938 83.121094 C 258.105469 77.710938 254.257812 72.097656 250.148438 66.257812 C 246.050781 60.429688 241.925781 54.765625 237.769531 49.308594 C 233.621094 43.851562 229.535156 38.722656 225.53125 33.925781 C 221.53125 29.117188 217.875 25.078125 214.570312 21.796875 L 195.496094 21.796875 L 195.496094 102.265625 L 204.152344 125.597656 L 218.621094 125.597656 L 218.621094 57.507812 C 227.5625 67.976562 235.871094 78.914062 243.539062 90.34375 C 251.351562 101.941406 258.609375 113.695312 265.292969 125.597656 L 284.96875 125.597656 L 284.96875 21.652344 L 261.710938 21.652344 Z M 261.710938 83.121094 " fill-opacity="1" fill-rule="nonzero"/><g clip-path="url(#ba6f5a4fe1)"><path fill="#ffffff" d="M 93.800781 102.964844 C 92.613281 103.839844 91.363281 104.609375 90.027344 105.273438 C 88.214844 106.066406 86.328125 106.664062 84.378906 107.050781 C 82.433594 107.445312 80.460938 107.617188 78.476562 107.578125 C 76.457031 107.628906 74.464844 107.460938 72.480469 107.074219 C 70.507812 106.679688 68.597656 106.078125 66.757812 105.273438 C 65.078125 104.464844 63.5 103.480469 62.046875 102.316406 C 60.59375 101.148438 59.296875 99.828125 58.152344 98.359375 C 55.628906 95.175781 53.800781 91.628906 52.648438 87.734375 C 51.339844 83.214844 50.714844 78.589844 50.773438 73.878906 C 50.726562 69.214844 51.351562 64.648438 52.648438 60.164062 C 53.800781 56.292969 55.628906 52.785156 58.152344 49.621094 C 59.308594 48.15625 60.617188 46.847656 62.070312 45.667969 C 63.527344 44.503906 65.089844 43.503906 66.769531 42.699219 C 68.609375 41.847656 70.519531 41.210938 72.492188 40.800781 C 74.476562 40.378906 76.46875 40.1875 78.5 40.222656 C 80.484375 40.1875 82.457031 40.367188 84.402344 40.753906 C 86.351562 41.136719 88.238281 41.738281 90.050781 42.53125 C 91.027344 43 91.976562 43.515625 92.875 44.105469 L 101.457031 24.226562 C 100.507812 23.804688 99.535156 23.382812 98.539062 23.046875 C 92.046875 20.691406 85.339844 19.539062 78.429688 19.574219 C 71.625 19.550781 65.039062 20.714844 58.65625 23.058594 C 55.570312 24.191406 52.636719 25.621094 49.859375 27.363281 C 47.070312 29.105469 44.511719 31.125 42.15625 33.410156 C 39.691406 35.824219 37.515625 38.46875 35.605469 41.328125 C 33.695312 44.203125 32.09375 47.230469 30.820312 50.441406 C 29.355469 54.164062 28.261719 58.011719 27.550781 61.953125 C 26.84375 65.910156 26.53125 69.886719 26.613281 73.902344 C 26.542969 77.902344 26.832031 81.882812 27.515625 85.824219 C 28.203125 89.777344 29.246094 93.625 30.664062 97.375 C 31.890625 100.558594 33.441406 103.578125 35.316406 106.425781 C 37.191406 109.285156 39.34375 111.90625 41.78125 114.296875 C 44.125 116.605469 46.699219 118.636719 49.476562 120.378906 C 52.265625 122.132812 55.195312 123.578125 58.296875 124.695312 C 64.789062 127.039062 71.496094 128.191406 78.40625 128.132812 C 85.4375 128.203125 92.265625 127.050781 98.886719 124.695312 C 99.765625 124.394531 100.582031 123.996094 101.410156 123.636719 C 99.558594 118.527344 96.78125 109.777344 94.101562 102.84375 Z M 93.800781 102.964844 " fill-opacity="1" fill-rule="nonzero"/></g><path fill="#ffffff" d="M 178.574219 76.726562 C 174.96875 67.484375 171.121094 58.191406 167.023438 48.839844 C 162.996094 39.464844 158.898438 30.367188 154.765625 21.679688 L 132.527344 21.679688 C 128.40625 30.308594 124.34375 39.347656 120.339844 48.792969 C 116.339844 58.253906 112.5625 67.554688 109.019531 76.703125 C 107.71875 79.960938 106.496094 83.144531 105.292969 86.304688 L 105.089844 86.976562 C 104.992188 87.230469 104.894531 87.496094 104.789062 87.734375 C 104.546875 88.503906 103.863281 89.839844 103.585938 90.558594 C 102.625 93.085938 101.277344 95.390625 99.558594 97.484375 L 107.972656 120.332031 C 110.664062 118.648438 113.152344 116.691406 115.414062 114.464844 C 117.707031 112.039062 119.714844 109.40625 121.445312 106.558594 C 123.175781 103.710938 124.59375 100.703125 125.675781 97.554688 C 126.675781 95.019531 127.347656 92.386719 128.40625 89.261719 C 128.851562 87.988281 129.28125 86.703125 129.75 85.453125 C 132.167969 78.503906 134.5 71.882812 136.757812 65.558594 C 139.007812 59.25 141.144531 53.816406 143.164062 49.261719 C 145.246094 53.878906 147.394531 59.308594 149.65625 65.609375 L 156.867188 85.429688 C 159.332031 92.316406 161.757812 99.238281 164.152344 106.222656 C 166.542969 113.191406 168.707031 119.671875 170.652344 125.644531 L 196.46875 125.644531 C 194.257812 119.035156 191.625 111.535156 188.585938 103.144531 C 185.558594 94.753906 182.214844 85.945312 178.574219 76.726562 Z M 178.574219 76.726562 " fill-opacity="1" fill-rule="nonzero"/><g clip-path="url(#a1be09c2d1)"><path fill="#ffffff" d="M 584.847656 20.34375 C 586.808594 20.355469 588.632812 20.847656 590.351562 21.796875 C 591.230469 22.265625 592.023438 22.84375 592.734375 23.554688 C 593.441406 24.261719 594.03125 25.042969 594.511719 25.933594 C 595.496094 27.675781 596 29.539062 596.015625 31.546875 C 596.015625 33.527344 595.519531 35.378906 594.535156 37.109375 C 594.054688 37.988281 593.464844 38.769531 592.757812 39.476562 C 592.058594 40.175781 591.265625 40.765625 590.390625 41.246094 C 589.546875 41.726562 588.644531 42.097656 587.695312 42.339844 C 586.746094 42.589844 585.785156 42.722656 584.8125 42.722656 C 583.839844 42.722656 582.863281 42.589844 581.925781 42.339844 C 580.976562 42.097656 580.078125 41.726562 579.222656 41.246094 C 578.359375 40.765625 577.5625 40.175781 576.867188 39.464844 C 576.15625 38.769531 575.570312 37.976562 575.089844 37.109375 C 574.59375 36.257812 574.222656 35.355469 573.984375 34.40625 C 573.71875 33.46875 573.597656 32.496094 573.597656 31.523438 C 573.597656 30.535156 573.71875 29.574219 573.984375 28.625 C 574.222656 27.675781 574.59375 26.785156 575.089844 25.933594 C 575.570312 25.054688 576.15625 24.261719 576.878906 23.554688 C 577.589844 22.84375 578.394531 22.265625 579.269531 21.796875 C 581 20.835938 582.863281 20.34375 584.847656 20.34375 Z M 584.847656 22.183594 C 583.203125 22.195312 581.652344 22.601562 580.21875 23.410156 C 579.488281 23.804688 578.8125 24.285156 578.226562 24.875 C 577.625 25.464844 577.132812 26.125 576.734375 26.859375 C 576.328125 27.554688 576.015625 28.300781 575.808594 29.082031 C 575.59375 29.863281 575.496094 30.65625 575.496094 31.472656 C 575.496094 32.289062 575.59375 33.085938 575.808594 33.867188 C 576.015625 34.648438 576.328125 35.390625 576.734375 36.089844 C 577.132812 36.820312 577.625 37.484375 578.214844 38.070312 C 578.800781 38.660156 579.464844 39.140625 580.195312 39.539062 C 580.90625 39.933594 581.640625 40.246094 582.433594 40.453125 C 583.214844 40.667969 584.007812 40.777344 584.824219 40.777344 C 585.628906 40.777344 586.433594 40.667969 587.214844 40.453125 C 587.996094 40.246094 588.742188 39.933594 589.4375 39.539062 C 590.171875 39.140625 590.832031 38.648438 591.421875 38.058594 C 592 37.484375 592.492188 36.820312 592.890625 36.089844 C 593.296875 35.390625 593.609375 34.648438 593.8125 33.867188 C 594.019531 33.085938 594.125 32.289062 594.125 31.472656 C 594.125 30.65625 594.019531 29.863281 593.8125 29.082031 C 593.609375 28.300781 593.296875 27.554688 592.890625 26.859375 C 592.492188 26.125 592 25.464844 591.398438 24.875 C 590.808594 24.285156 590.136719 23.804688 589.402344 23.410156 C 587.984375 22.617188 586.46875 22.207031 584.847656 22.183594 Z M 579.921875 37.734375 L 579.921875 25.679688 L 584.054688 25.679688 C 585.101562 25.632812 586.121094 25.742188 587.132812 26.027344 C 587.78125 26.234375 588.285156 26.617188 588.65625 27.183594 C 589.03125 27.710938 589.210938 28.300781 589.210938 28.949219 C 589.222656 29.394531 589.152344 29.804688 588.984375 30.210938 C 588.8125 30.609375 588.585938 30.96875 588.261719 31.269531 C 587.9375 31.59375 587.550781 31.859375 587.121094 32.050781 C 586.6875 32.242188 586.242188 32.351562 585.773438 32.375 C 586.144531 32.519531 586.496094 32.722656 586.78125 33 C 587.46875 33.710938 588.070312 34.476562 588.585938 35.308594 L 590.050781 37.617188 L 587.734375 37.617188 L 586.675781 35.726562 C 586.171875 34.660156 585.484375 33.722656 584.644531 32.902344 C 584.175781 32.589844 583.65625 32.445312 583.09375 32.496094 L 581.925781 32.496094 L 581.925781 37.617188 Z M 581.867188 30.945312 L 584.175781 30.945312 C 585.003906 31.027344 585.773438 30.859375 586.484375 30.441406 C 586.652344 30.296875 586.796875 30.140625 586.902344 29.945312 C 587.011719 29.753906 587.070312 29.5625 587.109375 29.347656 C 587.132812 29.128906 587.121094 28.914062 587.070312 28.710938 C 587.023438 28.492188 586.9375 28.300781 586.808594 28.121094 C 586.589844 27.832031 586.3125 27.628906 585.976562 27.496094 C 585.339844 27.328125 584.691406 27.253906 584.03125 27.289062 L 581.722656 27.289062 Z M 581.867188 30.945312 " fill-opacity="1" fill-rule="nonzero"/></g></svg>